# xmcd
#
# Track frame offsets: 
#        150
#        12292
#        23411
#        35112
#        43786
#        52966
#        62332
#        74788
#        83423
#        93564
#        103965
#        112748
#        123029
#        133445
#        141923
#        151283
#        161157
#        173318
#        183580
#        192288
#        203377
#        213201
#        223381
#        233638
#        245019
#        253768
#        262854
#        272078
#        284133
#        296833
#        308360
#        320148
#        330725
#        341941
#
# Disc length: 4701 seconds
#
# Revision: 0
# Processed by: cddbd v1.4PL0 Copyright (c) Steve Scherf et al.
# Submitted via: ExactAudioCopy v0.90b4
#
DISCID=01125b22
DTITLE=Del Reeves - The Wonderful World Of Del Reeves
DYEAR=1994
DGENRE=Country
TTITLE0=Girl On The Billboard
TTITLE1=Woman Do Funny Things To Me
TTITLE2=The Belles Of Southern Bell
TTITLE3=My Baby Loves To Rock and Roll
TTITLE4=Good Time Charlie's
TTITLE5=There Wouldn't Be A Lonely Heart In Town
TTITLE6=A Lover's Question
TTITLE7=Baby I Love You
TTITLE8=Six Days On The Road
TTITLE9=A Little Bit Of Something Else
TTITLE10=I've Used Up All My Doodle Do Do Do's
TTITLE11=Big Daddy
TTITLE12=Cool Drool
TTITLE13=Alabama Bull Of The Woods
TTITLE14=Don't Let Your Deal Go Down
TTITLE15=This Must Be The Bottom
TTITLE16=The Son Of Hickory Holler's Tramp
TTITLE17=Two Teen Hearts
TTITLE18=Wonderful World Of Women
TTITLE19=The Philadelphia Fillies
TTITLE20=Lover You
TTITLE21=He Stands Real Tall
TTITLE22=Take A Little Good Will Home
TTITLE23=Wild Blood
TTITLE24=You Must Be An Angel
TTITLE25=Better Times Coming
TTITLE26=A Dime At A Time
TTITLE27=Be Glad
TTITLE28=You're The Happy Songs I Sing
TTITLE29=It's A Sin To Tell A Lie
TTITLE30=Son Of The South
TTITLE31=Big Daddy Del
TTITLE32=Sweeter Tater And Cisco
TTITLE33=Down In The Boondock's
EXTD=
EXTT0=
EXTT1=
EXTT2=
EXTT3=
EXTT4=
EXTT5=
EXTT6=
EXTT7=
EXTT8=
EXTT9=
EXTT10=
EXTT11=
EXTT12=
EXTT13=
EXTT14=
EXTT15=
EXTT16=
EXTT17=
EXTT18=
EXTT19=
EXTT20=
EXTT21=
EXTT22=
EXTT23=
EXTT24=
EXTT25=
EXTT26=
EXTT27=
EXTT28=
EXTT29=
EXTT30=
EXTT31=
EXTT32=
EXTT33=
PLAYORDER=
